[Header]
FileType HTR
DataType HTRS
FileVersion 1
NumSegments 64
NumFrames 4
DataFrameRate 24
EulerRotationOrder ZYX
CalibrationUnits mm
RotationUnits Degrees
GlobalAxisofGravity Y
BoneLengthAxis Y
ScaleFactor 1.0
[SegmentNames&Hierarchy]
Hips	GLOBAL
Spine	Hips
Spine1	Spine
Spine2	Spine1
Neck	Spine2
Head	Neck
LeftEye	Head
RightEye	Head
LeftShoulder	Spine2
LeftArm	LeftShoulder
LeftForeArm	LeftArm
LeftHand	LeftForeArm
LeftHandThumb1	LeftHand
LeftHandThumb2	LeftHandThumb1
LeftHandThumb3	LeftHandThumb2
LeftHandThumb4	LeftHandThumb3
LeftHandIndex1	LeftHand
LeftHandIndex2	LeftHandIndex1
LeftHandIndex3	LeftHandIndex2
LeftHandIndex4	LeftHandIndex3
LeftHandMiddle1	LeftHand
LeftHandMiddle2	LeftHandMiddle1
LeftHandMiddle3	LeftHandMiddle2
LeftHandMiddle4	LeftHandMiddle3
LeftHandRing1	LeftHand
LeftHandRing2	LeftHandRing1
LeftHandRing3	LeftHandRing2
LeftHandRing4	LeftHandRing3
LeftHandPinky1	LeftHand
LeftHandPinky2	LeftHandPinky1
LeftHandPinky3	LeftHandPinky2
LeftHandPinky4	LeftHandPinky3
RightShoulder	Spine2
RightArm	RightShoulder
RightForeArm	RightArm
RightHand	RightForeArm
RightHandPinky1	RightHand
RightHandPinky2	RightHandPinky1
RightHandPinky3	RightHandPinky2
RightHandPinky4	RightHandPinky3
RightHandRing1	RightHand
RightHandRing2	RightHandRing1
RightHandRing3	RightHandRing2
RightHandRing4	RightHandRing3
RightHandMiddle1	RightHand
RightHandMiddle2	RightHandMiddle1
RightHandMiddle3	RightHandMiddle2
RightHandMiddle4	RightHandMiddle3
RightHandIndex1	RightHand
RightHandIndex2	RightHandIndex1
RightHandIndex3	RightHandIndex2
RightHandIndex4	RightHandIndex3
RightHandThumb1	RightHand
RightHandThumb2	RightHandThumb1
RightHandThumb3	RightHandThumb2
RightHandThumb4	RightHandThumb3
LeftUpLeg	Hips
LeftLeg	LeftUpLeg
LeftFoot	LeftLeg
LeftToeBase	LeftFoot
RightUpLeg	Hips
RightLeg	RightUpLeg
RightFoot	RightLeg
RightToeBase	RightFoot
[BasePosition]
Hips	0	0	0	0	0	0	1
Spine	0	0	0	0	0	0	1
Spine1	0	0	0	0	0	0	1
Spine2	0	0	0	0	0	0	1
Neck	0	0	0	0	0	0	1
Head	0	0	0	0	0	0	1
LeftEye	0	0	0	0	0	0	1
RightEye	0	0	0	0	0	0	1
LeftShoulder	0	0	0	0	0	0	1
LeftArm	0	0	0	0	0	0	1
LeftForeArm	0	0	0	0	0	0	1
LeftHand	0	0	0	0	0	0	1
LeftHandThumb1	0	0	0	0	0	0	1
LeftHandThumb2	0	0	0	0	0	0	1
LeftHandThumb3	0	0	0	0	0	0	1
LeftHandThumb4	0	0	0	0	0	0	1
LeftHandIndex1	0	0	0	0	0	0	1
LeftHandIndex2	0	0	0	0	0	0	1
LeftHandIndex3	0	0	0	0	0	0	1
LeftHandIndex4	0	0	0	0	0	0	1
LeftHandMiddle1	0	0	0	0	0	0	1
LeftHandMiddle2	0	0	0	0	0	0	1
LeftHandMiddle3	0	0	0	0	0	0	1
LeftHandMiddle4	0	0	0	0	0	0	1
LeftHandRing1	0	0	0	0	0	0	1
LeftHandRing2	0	0	0	0	0	0	1
LeftHandRing3	0	0	0	0	0	0	1
LeftHandRing4	0	0	0	0	0	0	1
LeftHandPinky1	0	0	0	0	0	0	1
LeftHandPinky2	0	0	0	0	0	0	1
LeftHandPinky3	0	0	0	0	0	0	1
LeftHandPinky4	0	0	0	0	0	0	1
RightShoulder	0	0	0	0	0	0	1
RightArm	0	0	0	0	0	0	1
RightForeArm	0	0	0	0	0	0	1
RightHand	0	0	0	0	0	0	1
RightHandPinky1	0	0	0	0	0	0	1
RightHandPinky2	0	0	0	0	0	0	1
RightHandPinky3	0	0	0	0	0	0	1
RightHandPinky4	0	0	0	0	0	0	1
RightHandRing1	0	0	0	0	0	0	1
RightHandRing2	0	0	0	0	0	0	1
RightHandRing3	0	0	0	0	0	0	1
RightHandRing4	0	0	0	0	0	0	1
RightHandMiddle1	0	0	0	0	0	0	1
RightHandMiddle2	0	0	0	0	0	0	1
RightHandMiddle3	0	0	0	0	0	0	1
RightHandMiddle4	0	0	0	0	0	0	1
RightHandIndex1	0	0	0	0	0	0	1
RightHandIndex2	0	0	0	0	0	0	1
RightHandIndex3	0	0	0	0	0	0	1
RightHandIndex4	0	0	0	0	0	0	1
RightHandThumb1	0	0	0	0	0	0	1
RightHandThumb2	0	0	0	0	0	0	1
RightHandThumb3	0	0	0	0	0	0	1
RightHandThumb4	0	0	0	0	0	0	1
LeftUpLeg	0	0	0	0	0	0	1
LeftLeg	0	0	0	0	0	0	1
LeftFoot	0	0	0	0	0	0	1
LeftToeBase	0	0	0	0	0	0	1
RightUpLeg	0	0	0	0	0	0	1
RightLeg	0	0	0	0	0	0	1
RightFoot	0	0	0	0	0	0	1
RightToeBase	0	0	0	0	0	0	1
[Hips]
71	-106.5549774	845.0805664	-698.067749	-345.9882813	34.36100388	13.30752468	1.0
72	-90.44838715	848.6419067	-592.9674072	-343.8827209	42.80578232	16.51083374	1.0
73	-70.74733734	844.0060425	-482.6144409	-339.104187	45.43876266	19.44491386	1.0
74	-50.56385422	835.1247559	-367.9005737	-337.6556091	41.65140152	17.91414261	1.0
[Spine]
71	0	101.8159943	1.315000057	1.992178917	1.436674595	0.3103301823	1.0
72	0	101.8159943	1.315000057	1.341516852	3.113255262	-0.1307430267	1.0
73	0	101.8159943	1.315000057	0.5785441399	5.224275589	-1.09243536	1.0
74	0	101.8159943	1.315000057	-0.1422445327	7.338718414	-2.154901505	1.0
[Spine1]
71	0	100.8349991	-10.00800037	4.005043983	3.200291157	0.175401926	1.0
72	0	100.8349991	-10.00800037	2.668431997	7.299583435	-0.5028975606	1.0
73	0	100.8349991	-10.00800037	0.9554400444	12.29302025	-2.335994005	1.0
74	0	100.8349991	-10.00800037	-0.7279548049	17.12388611	-4.502654552	1.0
[Spine2]
71	0	91	-13.73399925	4.005049706	3.20029068	0.1754009426	1.0
72	0	91	-13.73399925	2.668437243	7.299589157	-0.5029000044	1.0
73	0	91	-13.73399925	0.9554444551	12.2930336	-2.335995674	1.0
74	0	91	-13.73399925	-0.7279525995	17.12389946	-4.502655983	1.0
[Neck]
71	0	166.7169952	-25.16200066	5.620497704	-1.732222319	2.292044878	1.0
72	0	166.7169952	-25.16200066	4.507946491	-2.818984747	2.274469376	1.0
73	0	166.7169952	-25.16200066	1.473346233	-4.952859879	3.674664736	1.0
74	0	166.7169952	-25.16200066	-2.018672466	-7.26365757	5.490830421	1.0
[Head]
71	0	96.17900085	16.84999847	-32.98208618	-4.302726746	13.40487862	1.0
72	0	96.17900085	16.84999847	-35.50593567	-6.935957909	17.52575111	1.0
73	0	96.17900085	16.84999847	-42.86380768	-11.97793484	19.49171448	1.0
74	0	96.17900085	16.84999847	-51.48064041	-17.13542366	21.72845268	1.0
[LeftEye]
71	30.6760006	64.09500122	92.83599854	0	0	0	1.0
72	30.6760006	64.09500122	92.83599854	0	0	0	1.0
73	30.6760006	64.09500122	92.83599854	0	0	0	1.0
74	30.6760006	64.09500122	92.83599854	0	0	0	1.0
[RightEye]
71	-30.6760006	64.09500122	92.83499908	0	0	0	1.0
72	-30.6760006	64.09500122	92.83499908	0	0	0	1.0
73	-30.6760006	64.09500122	92.83499908	0	0	0	1.0
74	-30.6760006	64.09500122	92.83499908	0	0	0	1.0
[LeftShoulder]
71	45.70400238	109.4599991	-26.28000069	-0.5291668773	-3.327285767	7.338705063	1.0
72	45.70400238	109.4599991	-26.28000069	-0.3070307076	-0.2660152614	7.575491905	1.0
73	45.70400238	109.4599991	-26.28000069	0.2506325841	5.9360075	8.009742737	1.0
74	45.70400238	109.4599991	-26.28000069	0.8026382923	12.25316143	8.281543732	1.0
[LeftArm]
71	105.923996	-5.24600029	-22.32099915	1.593669891	13.46617985	-49.0721283	1.0
72	105.923996	-5.24600029	-22.32099915	20.29747391	19.72864151	-61.16898346	1.0
73	105.923996	-5.24600029	-22.32099915	17.41173935	28.77742386	-65.03102112	1.0
74	105.923996	-5.24600029	-22.32099915	5.241248131	38.18791962	-67.16194153	1.0
[LeftForeArm]
71	278.414978	-0.0009999999311	0	-544.8973999	-49.03063202	541.7947998	1.0
72	278.414978	-0.0009999999311	0	-545.1470337	-53.14305115	542.6339111	1.0
73	278.414978	-0.0009999999311	0	-547.1571045	-57.82785797	544.5216675	1.0
74	278.414978	-0.0009999999311	0	-549.5554199	-57.83174133	546.5758057	1.0
[LeftHand]
71	283.2879944	0	0	27.85558128	10.94366646	23.22383499	1.0
72	283.2879944	0	0	34.12624359	-2.011600494	22.98551559	1.0
73	283.2879944	0	0	21.63799667	-3.346996307	14.8244009	1.0
74	283.2879944	0	0	2.936244011	0.1416638792	5.435732365	1.0
[LeftHandThumb1]
71	24.6609993	-15.75	26.8239994	2.512794971	-6.420088768	17.21523857	1.0
72	24.6609993	-15.75	26.8239994	5.013625622	-5.806144714	15.19815636	1.0
73	24.6609993	-15.75	26.8239994	6.390010834	-5.639561653	14.22438335	1.0
74	24.6609993	-15.75	26.8239994	7.085006714	-5.671257973	13.93070602	1.0
[LeftHandThumb2]
71	32.29800034	-18.64699936	18.64699936	3.23250556	14.37518501	-14.68239975	1.0
72	32.29800034	-18.64699936	18.64699936	-0.3214805722	24.27946091	-20.83491898	1.0
73	32.29800034	-18.64699936	18.64699936	-2.657589197	29.37030792	-25.15675545	1.0
74	32.29800034	-18.64699936	18.64699936	-3.835280895	31.46876907	-27.48710632	1.0
[LeftHandThumb3]
71	26.52600098	-15.31499958	15.31499958	3.601811159e-06	-8.438974328e-05	-6.943767221e-05	1.0
72	26.52600098	-15.31499958	15.31499958	3.601811159e-06	-8.438974328e-05	-6.943767221e-05	1.0
73	26.52600098	-15.31499958	15.31499958	3.601811159e-06	-8.438974328e-05	-6.943767221e-05	1.0
74	26.52600098	-15.31499958	15.31499958	3.601811159e-06	-8.438974328e-05	-6.943767221e-05	1.0
[LeftHandThumb4]
71	19.54599953	-11.28499985	11.28499985	0	0	0	1.0
72	19.54599953	-11.28499985	11.28499985	0	0	0	1.0
73	19.54599953	-11.28499985	11.28499985	0	0	0	1.0
74	19.54599953	-11.28499985	11.28499985	0	0	0	1.0
[LeftHandIndex1]
71	91.09299469	-5.170999527	22.60099792	-0.9433138371	-3.185844898	-32.00627518	1.0
72	91.09299469	-5.170999527	22.60099792	-1.905343771	-5.912534714	-58.10373688	1.0
73	91.09299469	-5.170999527	22.60099792	-1.61805582	-7.404303074	-72.23821259	1.0
74	91.09299469	-5.170999527	22.60099792	-1.16361618	-8.057096481	-78.29949951	1.0
[LeftHandIndex2]
71	36.76399994	0	0	0.2479972243	-3.792378664	-50.39757538	1.0
72	36.76399994	0	0	1.041120529	-8.716520309	-88.4957428	1.0
73	36.76399994	0	0	3.046217918	-10.48816109	-109.1469421	1.0
74	36.76399994	0	0	4.553726196	-10.8968153	-118.0813293	1.0
[LeftHandIndex3]
71	28.83100128	0	0	-1.432096042e-06	3.907105395e-07	1.552835329e-06	1.0
72	28.83100128	0	0	-1.432096042e-06	3.907105395e-07	1.552835329e-06	1.0
73	28.83100128	0	0	-1.432096042e-06	3.907105395e-07	1.552835329e-06	1.0
74	28.83100128	0	0	-1.432096042e-06	3.907105395e-07	1.552835329e-06	1.0
[LeftHandIndex4]
71	23.92700005	0	0	0	0	0	1.0
72	23.92700005	0	0	0	0	0	1.0
73	23.92700005	0	0	0	0	0	1.0
74	23.92700005	0	0	0	0	0	1.0
[LeftHandMiddle1]
71	95.33399963	0	0	-1.172980547	-2.667045593	-38.49718475	1.0
72	95.33399963	0	0	-1.688938141	-5.843807697	-63.7956543	1.0
73	95.33399963	0	0	-1.205018282	-7.500203133	-77.4617691	1.0
74	95.33399963	0	0	-0.685233891	-8.188713074	-83.32606506	1.0
[LeftHandMiddle2]
71	36.98199844	0	0	0.287447691	-4.228095055	-43.81399918	1.0
72	36.98199844	0	0	1.075388551	-8.006030083	-77.65291595	1.0
73	36.98199844	0	0	2.607613087	-9.446249962	-96.23472595	1.0
74	36.98199844	0	0	3.717016697	-9.828632355	-104.378273	1.0
[LeftHandMiddle3]
71	29.50900078	0	0	0	-3.180554719e-15	-7.951386796e-16	1.0
72	29.50900078	0	0	0	-3.180554719e-15	-7.951386796e-16	1.0
73	29.50900078	0	0	0	-3.180554719e-15	-7.951386796e-16	1.0
74	29.50900078	0	0	0	-3.180554719e-15	-7.951386796e-16	1.0
[LeftHandMiddle4]
71	28.3390007	0	0	0	0	0	1.0
72	28.3390007	0	0	0	0	0	1.0
73	28.3390007	0	0	0	0	0	1.0
74	28.3390007	0	0	0	0	0	1.0
[LeftHandRing1]
71	91.04499817	-0.4390000105	-18.65100098	-2.660489559	2.04553628	-48.01671219	1.0
72	91.04499817	-0.4390000105	-18.65100098	-2.276140451	-2.280871391	-71.83922577	1.0
73	91.04499817	-0.4390000105	-18.65100098	-1.399580002	-4.457515717	-84.67362213	1.0
74	91.04499817	-0.4390000105	-18.65100098	-0.7471274734	-5.327229977	-90.17402649	1.0
[LeftHandRing2]
71	31.54000092	0	0	3.135417938	-2.324495554	-49.29615021	1.0
72	31.54000092	0	0	5.601778984	-2.389272928	-79.41557312	1.0
73	31.54000092	0	0	6.798125267	-1.710335016	-96.24396515	1.0
74	31.54000092	0	0	7.261456013	-1.13055861	-103.7305298	1.0
[LeftHandRing3]
71	29.37700081	0	0	1.590277359e-15	3.180554719e-15	-7.951386796e-16	1.0
72	29.37700081	0	0	1.590277359e-15	3.180554719e-15	-7.951386796e-16	1.0
73	29.37700081	0	0	1.590277359e-15	3.180554719e-15	-7.951386796e-16	1.0
74	29.37700081	0	0	1.590277359e-15	3.180554719e-15	-7.951386796e-16	1.0
[LeftHandRing4]
71	26.47500038	0	0	0	0	0	1.0
72	26.47500038	0	0	0	0	0	1.0
73	26.47500038	0	0	0	0	0	1.0
74	26.47500038	0	0	0	0	0	1.0
[LeftHandPinky1]
71	80.77799988	-4.887000084	-38.06099701	-3.282283783	5.717795372	-45.98303986	1.0
72	80.77799988	-4.887000084	-38.06099701	-2.707828045	-0.9576681256	-69.57466125	1.0
73	80.77799988	-4.887000084	-38.06099701	-1.731763959	-4.416607857	-82.286026	1.0
74	80.77799988	-4.887000084	-38.06099701	-1.032607675	-5.844107628	-87.72754669	1.0
[LeftHandPinky2]
71	36	0	0	6.600085258	-2.384498358	-62.76831436	1.0
72	36	0	0	9.312093735	0.3825741708	-88.59706879	1.0
73	36	0	0	9.971514702	2.378326416	-102.5896606	1.0
74	36	0	0	9.928281784	3.447029114	-108.6560059	1.0
[LeftHandPinky3]
71	21.14200211	0	0	3.226109357e-06	2.925280342e-06	-5.739977951e-06	1.0
72	21.14200211	0	0	3.226109357e-06	2.925280342e-06	-5.739977951e-06	1.0
73	21.14200211	0	0	3.226109357e-06	2.925280342e-06	-5.739977951e-06	1.0
74	21.14200211	0	0	3.226109357e-06	2.925280342e-06	-5.739977951e-06	1.0
[LeftHandPinky4]
71	19.75699997	0	0	0	0	0	1.0
72	19.75699997	0	0	0	0	0	1.0
73	19.75699997	0	0	0	0	0	1.0
74	19.75699997	0	0	0	0	0	1.0
[RightShoulder]
71	-45.70000076	109.4620056	-26.28000069	2.351118326	14.05863953	-1.150433302	1.0
72	-45.70000076	109.4620056	-26.28000069	0.9006525874	12.71396255	-11.06091213	1.0
73	-45.70000076	109.4620056	-26.28000069	1.146891594	10.40576172	-17.73767853	1.0
74	-45.70000076	109.4620056	-26.28000069	1.908786774	8.035949707	-21.93251991	1.0
[RightArm]
71	-105.9280014	-5.248000145	-22.32099915	-39.50611496	12.667346	-6.187532425	1.0
72	-105.9280014	-5.248000145	-22.32099915	-62.23065567	10.28537655	-13.79069614	1.0
73	-105.9280014	-5.248000145	-22.32099915	-81.6619339	15.61962795	-20.43632507	1.0
74	-105.9280014	-5.248000145	-22.32099915	-102.5160599	28.53905296	-42.69054794	1.0
[RightForeArm]
71	-278.414978	0	0	-23.10404778	35.38291931	1.34141469	1.0
72	-278.414978	0	0	-17.08845329	39.86430359	2.085021496	1.0
73	-278.414978	0	0	-9.81593132	54.52005768	1.883055449	1.0
74	-278.414978	0	0	-11.58044815	66.17191315	-0.8291187286	1.0
[RightHand]
71	-283.2879944	0	0.0009999999311	-63.68267059	26.48405838	-4.89860487	1.0
72	-283.2879944	0	0.0009999999311	-49.79836273	16.56787682	6.955005169	1.0
73	-283.2879944	0	0.0009999999311	-33.80277252	20.11226273	13.36826134	1.0
74	-283.2879944	0	0.0009999999311	-16.8140316	26.32412338	17.81836319	1.0
[RightHandPinky1]
71	-80.76699829	-4.885000229	-38.06000137	2.620975494	16.22328568	117.1576691	1.0
72	-80.76699829	-4.885000229	-38.06000137	1.449820638	15.12907696	111.782074	1.0
73	-80.76699829	-4.885000229	-38.06000137	0.96433568	14.96502495	109.9768677	1.0
74	-80.76699829	-4.885000229	-38.06000137	0.6244710088	14.89449692	108.5146713	1.0
[RightHandPinky2]
71	-36	0	0.0009999999311	15.18973827	2.292876244	95.27840424	1.0
72	-36	0	0.0009999999311	15.01393032	1.978780866	96.30421448	1.0
73	-36	0	0.0009999999311	15.14353466	1.478143692	98.91374969	1.0
74	-36	0	0.0009999999311	15.28362274	1.066491127	101.11689	1.0
[RightHandPinky3]
71	-21.14200211	0	0	-1.590277359e-15	0	-7.951386796e-16	1.0
72	-21.14200211	0	0	-1.590277359e-15	0	-7.951386796e-16	1.0
73	-21.14200211	0	0	-1.590277359e-15	0	-7.951386796e-16	1.0
74	-21.14200211	0	0	-1.590277359e-15	0	-7.951386796e-16	1.0
[RightHandPinky4]
71	-19.75699997	0	0	0	0	0	1.0
72	-19.75699997	0	0	0	0	0	1.0
73	-19.75699997	0	0	0	0	0	1.0
74	-19.75699997	0	0	0	0	0	1.0
[RightHandRing1]
71	-91.03599548	-0.4390000105	-18.65100098	-0.7599324584	11.37402916	114.7415314	1.0
72	-91.03599548	-0.4390000105	-18.65100098	-1.333738327	10.80721569	110.3026733	1.0
73	-91.03599548	-0.4390000105	-18.65100098	-1.576272488	10.72506332	108.5612869	1.0
74	-91.03599548	-0.4390000105	-18.65100098	-1.754567146	10.6891489	107.1144562	1.0
[RightHandRing2]
71	-31.54000092	0	0	8.946167946	3.529891014	90.66946411	1.0
72	-31.54000092	0	0	8.604201317	3.668698549	87.28627777	1.0
73	-31.54000092	0	0	8.684309006	3.63140583	88.09265137	1.0
74	-31.54000092	0	0	8.823390961	3.564458847	89.51991272	1.0
[RightHandRing3]
71	-29.37700081	0	0	5.740008078e-07	-7.531911024e-07	-2.69121324e-06	1.0
72	-29.37700081	0	0	5.740008078e-07	-7.531911024e-07	-2.69121324e-06	1.0
73	-29.37700081	0	0	5.740008078e-07	-7.531911024e-07	-2.69121324e-06	1.0
74	-29.37700081	0	0	5.740008078e-07	-7.531911024e-07	-2.69121324e-06	1.0
[RightHandRing4]
71	-26.47500038	0	0	0	0	0	1.0
72	-26.47500038	0	0	0	0	0	1.0
73	-26.47500038	0	0	0	0	0	1.0
74	-26.47500038	0	0	0	0	0	1.0
[RightHandMiddle1]
71	-95.32500458	0	0	0.9632484913	8.490062714	109.9901047	1.0
72	-95.32500458	0	0	0.5252171755	8.198023796	105.6082153	1.0
73	-95.32500458	0	0	0.2657046914	7.969370842	103.2800751	1.0
74	-95.32500458	0	0	0.06199726835	7.770366192	101.4803009	1.0
[RightHandMiddle2]
71	-36.98199844	0	0	0.3538765311	8.194328308	100.1494064	1.0
72	-36.98199844	0	0	0.01397141721	7.953219414	95.92383575	1.0
73	-36.98199844	0	0	0.07301992923	8.000455856	96.66711426	1.0
74	-36.98199844	0	0	0.2040073425	8.092762947	98.21111298	1.0
[RightHandMiddle3]
71	-29.50900078	0	0	1.856611448e-06	-0.002022909233	1.577868488e-06	1.0
72	-29.50900078	0	0	1.856611448e-06	-0.002022909233	1.577868488e-06	1.0
73	-29.50900078	0	0	1.856611448e-06	-0.002022909233	1.577868488e-06	1.0
74	-29.50900078	0	0	1.856611448e-06	-0.002022909233	1.577868488e-06	1.0
[RightHandMiddle4]
71	-28.3390007	0	0.0009999999311	0	0	0	1.0
72	-28.3390007	0	0.0009999999311	0	0	0	1.0
73	-28.3390007	0	0.0009999999311	0	0	0	1.0
74	-28.3390007	0	0.0009999999311	0	0	0	1.0
[RightHandIndex1]
71	-91.08300018	-5.167999744	22.60099792	3.714739084	1.876573801	116.0384216	1.0
72	-91.08300018	-5.167999744	22.60099792	3.4859128	2.000117302	111.2440872	1.0
73	-91.08300018	-5.167999744	22.60099792	3.433416367	1.896939516	108.7671738	1.0
74	-91.08300018	-5.167999744	22.60099792	3.410919905	1.787840009	106.8646774	1.0
[RightHandIndex2]
71	-36.76399994	0	0	-1.182736278	7.944387913	100.9930725	1.0
72	-36.76399994	0	0	-1.556816459	7.567148209	96.5187912	1.0
73	-36.76399994	0	0	-1.512049437	7.616237164	97.08744812	1.0
74	-36.76399994	0	0	-1.389411926	7.733869076	98.47065735	1.0
[RightHandIndex3]
71	-28.83100128	0	0	-3.180554719e-15	0	0	1.0
72	-28.83100128	0	0	-3.180554719e-15	0	0	1.0
73	-28.83100128	0	0	-3.180554719e-15	0	0	1.0
74	-28.83100128	0	0	-3.180554719e-15	0	0	1.0
[RightHandIndex4]
71	-23.92700005	0	0	0	0	0	1.0
72	-23.92700005	0	0	0	0	0	1.0
73	-23.92700005	0	0	0	0	0	1.0
74	-23.92700005	0	0	0	0	0	1.0
[RightHandThumb1]
71	-24.64799881	-15.72700024	26.82600021	6.032786369	12.66505432	8.006547928	1.0
72	-24.64799881	-15.72700024	26.82600021	13.25889587	21.60075378	-1.773688078	1.0
73	-24.64799881	-15.72700024	26.82600021	16.33036041	25.72942352	-5.687719345	1.0
74	-24.64799881	-15.72700024	26.82600021	17.75177765	27.87965393	-7.511394978	1.0
[RightHandThumb2]
71	-32.29800034	-18.64699936	18.64699936	0.5086903572	-37.44936371	40.71234512	1.0
72	-32.29800034	-18.64699936	18.64699936	-3.522180319	-33.79666901	56.48941803	1.0
73	-32.29800034	-18.64699936	18.64699936	-4.53262949	-33.1950798	63.63389587	1.0
74	-32.29800034	-18.64699936	18.64699936	-4.594708443	-33.29599762	67.17808533	1.0
[RightHandThumb3]
71	-26.52600098	-15.31399918	15.31399918	-3.81245151e-08	-0.00121095567	-0.001221005921	1.0
72	-26.52600098	-15.31399918	15.31399918	-3.81245151e-08	-0.00121095567	-0.001221005921	1.0
73	-26.52600098	-15.31399918	15.31399918	-3.81245151e-08	-0.00121095567	-0.001221005921	1.0
74	-26.52600098	-15.31399918	15.31399918	-3.81245151e-08	-0.00121095567	-0.001221005921	1.0
[RightHandThumb4]
71	-19.54599953	-11.28499985	11.28499985	0	0	0	1.0
72	-19.54599953	-11.28499985	11.28499985	0	0	0	1.0
73	-19.54599953	-11.28499985	11.28499985	0	0	0	1.0
74	-19.54599953	-11.28499985	11.28499985	0	0	0	1.0
[LeftUpLeg]
71	82.07800293	-67.51699829	-15.99599934	-59.92304993	4.906408787	-9.049253464	1.0
72	82.07800293	-67.51699829	-15.99599934	-61.41850281	-4.570830822	-16.33761406	1.0
73	82.07800293	-67.51699829	-15.99599934	-63.28626251	-10.22694397	-17.2553978	1.0
74	82.07800293	-67.51699829	-15.99599934	-65.38841248	-13.63757324	-15.50613213	1.0
[LeftLeg]
71	0	-443.7049866	2.845999956	65.69391632	2.888077259	-7.187969208	1.0
72	0	-443.7049866	2.845999956	53.16781235	2.04575634	-9.129849434	1.0
73	0	-443.7049866	2.845999956	46.87542725	-2.877376556	-13.26024246	1.0
74	0	-443.7049866	2.845999956	45.39592743	-7.249297619	-16.73263931	1.0
[LeftFoot]
71	0	-444.2789917	-29.8219986	-22.01357841	-1.198907971	-5.310633659	1.0
72	0	-444.2789917	-29.8219986	-19.04511261	-3.128366232	-5.141608715	1.0
73	0	-444.2789917	-29.8219986	-17.99119949	-7.749092102	-5.428687572	1.0
74	0	-444.2789917	-29.8219986	-16.83335114	-12.97205067	-4.001875401	1.0
[LeftToeBase]
71	0	-87.28699493	107.1060028	-2.321214676	2.199525261e-05	-1.261271791e-06	1.0
72	0	-87.28699493	107.1060028	-0.9402107596	1.395654363e-05	9.36694903e-07	1.0
73	0	-87.28699493	107.1060028	-0.5544222593	6.112580195e-06	3.824467967e-06	1.0
74	0	-87.28699493	107.1060028	-0.4822368324	-2.746641883e-07	5.307069387e-06	1.0
[RightUpLeg]
71	-82.07800293	-67.51699829	-15.99599934	-0.1083688736	-19.62512016	-5.641357422	1.0
72	-82.07800293	-67.51699829	-15.99599934	13.15159321	-20.89233589	-2.489773989	1.0
73	-82.07800293	-67.51699829	-15.99599934	19.93226624	-19.27233124	0.5888832808	1.0
74	-82.07800293	-67.51699829	-15.99599934	24.18505478	-16.82783508	3.137753248	1.0
[RightLeg]
71	0	-443.7049866	2.861999989	51.26426697	-7.522462368	-5.887423038	1.0
72	0	-443.7049866	2.861999989	37.75727463	-11.93988323	-4.181892872	1.0
73	0	-443.7049866	2.861999989	25.64393234	-13.21290398	-1.670779943	1.0
74	0	-443.7049866	2.861999989	15.21726418	-13.07623959	0.9176858068	1.0
[RightFoot]
71	0	-444.2770081	-29.83799934	-33.82431793	-0.9706721306	10.2607193	1.0
72	0	-444.2770081	-29.83799934	-24.14992905	-6.554706573	9.141723633	1.0
73	0	-444.2770081	-29.83799934	-7.9923563	-12.87589073	5.199068069	1.0
74	0	-444.2770081	-29.83799934	10.13909626	-18.21466255	0.9169663191	1.0
[RightToeBase]
71	0	-87.28699493	107.1060028	-22.17671585	-0.04446634278	-0.09183437377	1.0
72	0	-87.28699493	107.1060028	-25.54301071	-2.021282853e-06	-6.635857517e-06	1.0
73	0	-87.28699493	107.1060028	-27.67959023	0.3850186467	0.7736557722	1.0
74	0	-87.28699493	107.1060028	-27.43884087	0.6841427088	1.37422049	1.0
[EndOfFile]
